<?xml version="1.0" standalone="no"?>
<!DOCTYPE svg PUBLIC "-//W3C//DTD SVG 20010904//EN"
 "http://www.w3.org/TR/2001/REC-SVG-20010904/DTD/svg10.dtd">
<svg version="1.0" xmlns="http://www.w3.org/2000/svg"
 width="1536.000000pt" height="1536.000000pt" viewBox="0 0 1536.000000 1536.000000"
 preserveAspectRatio="xMidYMid meet">

<g transform="translate(0.000000,1536.000000) scale(0.100000,-0.100000)"
fill="#000000" stroke="none">
<path d="M6995 12389 c-49 -28 -148 -85 -220 -127 -71 -41 -186 -107 -255
-147 -110 -63 -232 -133 -680 -392 -204 -118 -381 -219 -895 -516 -286 -165
-675 -389 -864 -498 -189 -109 -355 -208 -368 -221 -33 -30 -59 -83 -67 -134
-8 -55 -9 -2446 0 -2467 3 -10 17 -20 31 -23 30 -8 64 9 403 206 495 287 1706
988 2125 1230 83 48 254 146 380 220 556 321 524 301 558 363 l22 42 2 1230
c2 979 0 1235 -10 1255 -21 42 -60 37 -162 -21z m-222 -1236 c34 -32 90 -86
125 -119 l63 -62 -29 -58 c-47 -93 -199 -367 -217 -391 -19 -27 -50 -30 -59
-7 -7 17 16 65 108 229 31 55 68 123 82 151 l26 50 -106 104 c-58 57 -106 108
-106 113 0 14 30 47 42 47 6 0 38 -26 71 -57z m-412 -80 c37 -22 59 -42 59
-53 0 -27 -101 -200 -127 -217 -12 -8 -27 -12 -33 -8 -19 12 -10 43 35 116 25
40 45 76 45 80 0 4 -22 21 -50 38 -50 31 -62 55 -38 79 15 15 35 9 109 -35z
m-914 -40 c4 -11 -4 -25 -27 -45 -19 -15 -37 -28 -41 -28 -3 0 -109 -58 -235
-130 -126 -71 -236 -130 -246 -130 -24 0 -32 18 -16 40 16 24 516 310 541 310
10 0 21 -8 24 -17z m678 -67 c56 -18 71 -26 73 -44 8 -52 -109 -206 -187 -246
-68 -36 -87 17 -21 59 61 38 151 147 132 159 -4 2 -27 9 -52 15 -97 25 -121
46 -88 79 14 14 38 10 143 -22z m-175 -130 c0 -22 -17 -33 -195 -136 -99 -57
-252 -145 -340 -196 -325 -187 -495 -283 -514 -289 -24 -7 -39 28 -21 50 6 8
71 46 143 86 73 40 152 84 177 99 25 15 88 51 140 80 52 29 142 81 200 115 87
51 316 179 369 206 18 9 41 1 41 -15z m-1200 -23 c0 -28 -131 -396 -148 -415
-18 -21 -41 -23 -48 -4 -3 7 13 60 34 117 21 57 54 146 72 197 18 52 39 100
47 108 20 19 43 18 43 -3z m440 -171 c0 -22 -7 -32 -32 -45 -18 -9 -62 -33
-98 -53 -173 -97 -180 -99 -180 -56 0 26 12 35 138 105 75 42 145 77 155 77
12 0 17 -8 17 -28z m-720 -182 c0 -6 -14 -38 -31 -72 -17 -34 -37 -78 -44 -99
l-13 -36 49 -49 c37 -36 49 -55 47 -73 -5 -43 -27 -35 -101 37 l-72 71 45 92
c25 51 53 103 63 116 18 23 57 32 57 13z m1407 -376 c9 -24 -8 -45 -53 -69
-21 -12 -93 -54 -160 -92 -66 -39 -156 -91 -200 -116 -43 -24 -186 -105 -317
-181 -131 -75 -245 -136 -252 -136 -19 0 -27 16 -21 38 4 10 89 65 199 127
105 61 322 185 482 277 159 93 295 168 303 168 7 0 15 -7 19 -16z m-1719 -254
c2 -17 -32 -88 -103 -215 l-105 -189 107 -108 c101 -102 106 -108 95 -133 -6
-14 -20 -25 -30 -25 -10 0 -73 56 -141 124 l-122 124 17 34 c9 18 27 49 39 68
12 19 57 98 100 175 43 77 85 148 93 158 21 24 46 17 50 -13z m1286 -233 c8
-12 7 -21 -5 -32 -24 -24 -521 -306 -543 -308 -25 -2 -34 35 -14 53 24 22 533
309 542 307 5 -2 14 -11 20 -20z m-698 -60 c5 -13 -27 -108 -104 -307 -36 -93
-64 -123 -78 -86 -6 14 99 311 133 379 14 29 40 36 49 14z m634 -221 c0 -18
-40 -44 -222 -148 -288 -162 -269 -153 -279 -137 -23 35 -21 36 300 218 96 54
181 97 188 94 7 -3 13 -15 13 -27z m-920 -182 c0 -9 -24 -60 -52 -114 l-53
-98 42 -42 c56 -58 72 -88 53 -100 -26 -17 -36 -11 -100 61 l-63 71 38 71 c62
116 77 141 87 155 15 17 48 15 48 -4z m970 -3 c12 -24 -2 -40 -63 -75 -380
-217 -472 -266 -484 -262 -8 4 -13 16 -11 28 3 23 41 52 133 103 27 15 110 62
185 105 149 85 211 119 222 120 4 0 12 -9 18 -19z m-875 -343 c4 -29 20 -80
36 -112 16 -33 29 -65 29 -73 0 -22 -29 -15 -55 13 -41 44 -77 182 -55 209 24
28 38 16 45 -37z"/>
<path d="M11905 11198 c-4 -10 -10 -16 -15 -13 -4 2 -27 -8 -51 -23 -24 -16
-57 -35 -74 -43 -40 -21 -99 -54 -295 -167 -91 -52 -178 -103 -195 -112 -16
-10 -52 -31 -80 -47 -27 -17 -96 -56 -152 -87 -111 -62 -154 -99 -181 -155
-16 -33 -17 -113 -20 -986 -2 -522 0 -960 3 -972 7 -28 53 -53 96 -53 25 0
120 41 139 60 3 3 32 19 65 35 33 17 74 40 91 53 17 12 35 22 41 22 5 0 18 8
29 18 10 9 51 33 89 51 39 19 83 45 98 58 16 12 33 23 39 23 14 0 149 79 176
103 12 11 22 17 22 12 0 -5 10 1 23 12 12 11 36 28 53 36 17 9 36 23 43 31 7
9 17 13 22 10 5 -3 9 1 9 9 0 8 9 22 19 31 10 10 22 34 26 53 11 58 7 2021 -4
2041 -9 16 -10 16 -16 0z m-345 -530 c65 -44 75 -69 75 -176 0 -87 -3 -103
-31 -162 -77 -163 -241 -269 -358 -230 -159 52 -147 315 21 484 101 102 218
135 293 84z m240 -497 c0 -11 -36 -38 -100 -73 -45 -26 -117 -68 -207 -122
-26 -17 -61 -40 -76 -53 -16 -13 -37 -23 -47 -23 -10 0 -21 -4 -24 -9 -3 -5
-32 -24 -64 -42 -31 -17 -73 -41 -92 -52 -116 -68 -163 -88 -171 -75 -11 17
-9 18 96 79 122 71 184 107 290 169 50 28 117 67 150 85 33 18 96 53 140 78
81 46 105 55 105 38z m-297 -812 c35 -16 49 -46 48 -109 0 -90 -52 -179 -123
-213 -99 -46 -168 0 -168 113 0 135 140 256 243 209z"/>
<path d="M8547 9885 c-133 -37 -263 -140 -319 -252 -77 -157 -36 -325 100
-407 31 -18 74 -39 96 -46 l39 -12 -8 -198 c-6 -171 -5 -202 9 -229 18 -35 44
-51 79 -51 29 0 38 10 61 73 20 52 39 67 87 67 44 0 113 -69 129 -130 16 -58
8 -146 -18 -197 l-21 -40 32 -38 c105 -128 316 -178 492 -116 119 42 203 129
255 264 53 136 65 218 65 452 l0 210 -33 96 c-17 53 -49 122 -70 155 -78 121
-242 236 -384 269 -35 8 -108 19 -162 25 -93 11 -100 13 -131 46 -66 69 -178
92 -298 59z"/>
<path d="M9690 8271 c-41 -11 -92 -27 -113 -36 -37 -15 -37 -16 -23 -44 19
-36 7 -85 -39 -156 -43 -68 -114 -129 -199 -170 -113 -55 -172 -67 -371 -74
l-180 -6 -70 -40 c-38 -22 -74 -42 -79 -44 -32 -13 -194 -122 -260 -173 -196
-155 -330 -364 -521 -813 -66 -154 -82 -222 -67 -272 51 -169 302 -357 546
-407 42 -9 60 -17 62 -29 1 -9 -2 -17 -7 -17 -5 0 -3 -10 5 -22 7 -13 12 -32
10 -43 -2 -11 -4 -37 -6 -58 -1 -30 -4 -35 -13 -24 -12 17 -33 11 -59 -15 -10
-11 -21 -17 -24 -13 -4 3 -1 10 7 14 10 7 10 9 -1 14 -10 3 -42 -30 -94 -96
-113 -144 -195 -221 -273 -259 -61 -31 -72 -33 -171 -33 -103 0 -108 1 -186
39 -64 32 -97 57 -178 139 -84 86 -103 100 -135 103 -20 2 -85 8 -144 15 -130
14 -218 8 -312 -22 -38 -13 -73 -22 -76 -21 -4 1 -15 -8 -24 -18 -10 -11 -23
-20 -30 -20 -17 0 -116 -114 -142 -163 -12 -23 -26 -46 -30 -52 -24 -28 -56
-211 -72 -405 -6 -69 -20 -287 -31 -485 -11 -198 -29 -524 -40 -725 -11 -201
-23 -376 -27 -390 -3 -14 -5 -30 -4 -37 4 -25 -21 -22 -111 12 -160 60 -274
70 -375 35 -68 -24 -106 -58 -140 -125 -35 -68 -28 -141 21 -239 64 -126 139
-188 366 -297 58 -28 182 -89 277 -135 209 -103 244 -115 358 -119 83 -3 95
-1 142 23 117 60 142 108 162 297 5 50 17 113 26 140 9 28 19 57 22 65 3 8 7
33 8 54 7 83 30 206 38 206 4 0 7 8 6 17 -3 37 1 54 13 47 7 -5 9 -2 5 9 -4
11 -2 14 8 10 8 -3 12 -10 8 -16 -3 -5 -1 -7 4 -4 13 8 80 -18 100 -39 8 -8
20 -14 27 -14 7 0 21 -9 31 -20 10 -11 24 -20 31 -20 7 0 14 -4 16 -9 2 -5 58
-38 125 -74 103 -54 135 -66 200 -75 92 -13 144 -5 205 31 63 38 96 72 108
114 13 45 31 201 30 258 -1 22 10 81 24 130 36 129 35 135 -21 165 -27 13 -70
38 -98 54 -150 87 -536 298 -539 295 -9 -10 -36 -121 -36 -147 0 -42 -9 -62
-29 -62 -34 1 -126 39 -129 54 -2 9 4 70 12 136 14 107 14 125 1 150 -23 45
-28 102 -15 179 13 76 39 121 71 121 10 0 153 -71 317 -158 827 -441 829 -442
933 -450 58 -4 68 -2 77 14 9 19 53 236 132 659 121 648 197 1019 226 1108 30
90 88 182 147 232 39 34 278 177 547 327 135 76 470 269 655 378 304 179 353
204 417 208 68 5 107 -11 189 -80 55 -45 67 -74 35 -82 -12 -3 -86 -44 -165
-91 -79 -48 -178 -106 -220 -129 -42 -23 -168 -96 -281 -161 -113 -65 -304
-175 -425 -244 -121 -69 -221 -129 -223 -133 -2 -4 -8 -8 -13 -8 -21 0 -247
-137 -287 -174 -24 -22 -54 -58 -68 -81 -52 -90 -62 -136 -239 -1075 -47 -250
-101 -538 -121 -640 -44 -236 -53 -274 -75 -335 -18 -48 -89 -135 -134 -162
-18 -12 -18 -12 7 -7 19 4 29 2 33 -7 11 -30 10 -669 -1 -673 -6 -2 -31 9 -56
24 -25 16 -101 57 -169 93 -68 35 -155 81 -192 101 -81 43 -122 46 -158 12
-20 -19 -28 -39 -34 -82 -5 -44 -15 -68 -40 -99 -47 -58 -55 -78 -55 -132 1
-55 14 -88 51 -129 38 -44 63 -54 129 -54 76 0 105 15 167 85 l48 55 55 -26
c30 -14 62 -29 70 -33 45 -24 -8 -58 -208 -136 -137 -54 -182 -72 -237 -96
-22 -9 -114 -47 -205 -84 -413 -169 -447 -185 -480 -220 -23 -25 -25 -34 -26
-128 0 -93 -3 -106 -27 -142 -60 -92 -58 -180 6 -249 43 -46 87 -66 142 -66
110 0 205 94 205 202 0 52 -29 119 -60 141 l-23 16 34 20 c19 12 50 26 69 32
19 6 49 17 65 24 17 7 66 27 110 44 44 18 89 36 100 41 11 5 48 20 83 34 139
58 189 79 229 97 24 10 46 19 49 19 3 0 20 6 37 14 18 8 60 26 95 40 34 14 90
38 125 52 34 14 81 34 104 45 53 23 60 24 71 2 4 -10 4 -268 -1 -573 l-8 -555
-39 -38 c-76 -76 -92 -163 -44 -244 59 -101 184 -134 275 -74 74 49 101 96
101 176 0 49 -11 73 -58 132 l-34 41 0 571 c0 483 2 572 14 577 8 3 36 -6 63
-20 26 -14 51 -26 55 -26 4 0 51 -21 105 -46 124 -57 169 -78 213 -97 60 -26
403 -176 495 -217 135 -60 159 -70 175 -70 9 0 24 -8 34 -18 15 -18 15 -21
-14 -57 -28 -35 -50 -90 -50 -125 0 -39 25 -95 57 -131 73 -81 194 -86 275
-11 54 50 68 80 68 147 0 59 -7 79 -49 134 -24 32 -26 41 -23 117 6 127 -5
142 -142 208 -61 30 -165 77 -231 106 -66 29 -138 60 -160 70 -22 10 -85 37
-140 60 -55 23 -113 48 -130 56 -16 7 -66 27 -110 44 -44 17 -116 49 -160 70
-44 21 -90 41 -102 45 -16 4 -23 14 -23 31 0 20 9 29 48 46 66 30 112 39 112
23 0 -24 59 -98 101 -127 39 -26 51 -29 102 -26 102 7 187 92 189 190 1 51
-19 95 -66 143 -29 29 -34 43 -38 94 -5 66 -22 94 -73 115 -24 11 -37 10 -70
-1 -40 -14 -296 -150 -305 -162 -3 -4 -35 -22 -71 -41 -109 -56 -103 -80 -94
348 4 222 11 372 17 379 12 15 342 203 356 203 6 0 12 4 14 8 3 8 98 65 208
125 30 16 71 39 90 51 66 40 75 45 97 55 12 6 62 34 110 64 48 29 104 61 123
70 19 10 49 26 65 36 17 10 80 47 140 81 238 137 317 205 354 305 20 53 47
177 91 423 13 69 28 122 34 122 6 0 27 -10 46 -22 148 -90 362 -208 380 -208
7 0 10 163 10 509 0 316 4 520 10 536 7 19 15 25 28 20 11 -3 29 3 43 13 13
11 39 27 58 37 26 13 31 19 20 26 -13 8 13 13 58 12 7 -1 11 3 8 7 -5 9 25 24
40 21 5 -1 2 6 -8 17 -9 10 -14 22 -10 27 5 4 2 5 -5 1 -7 -4 -10 -12 -7 -17
4 -5 -1 -9 -10 -9 -17 0 -51 -18 -73 -37 -7 -7 -22 -13 -32 -13 -25 0 -91 -45
-82 -55 4 -5 -1 -5 -11 -2 -10 4 -21 7 -23 7 -2 0 -4 152 -4 338 l0 338 36 17
c26 13 34 22 30 34 -5 12 -3 13 7 5 10 -8 20 -6 40 7 15 10 24 21 20 26 -5 4
-2 5 5 1 7 -4 33 7 62 29 28 20 50 38 50 39 0 1 -9 2 -20 3 -13 1 -18 -2 -13
-10 4 -8 1 -8 -9 1 -14 11 -19 9 -32 -10 -9 -13 -20 -22 -24 -22 -7 1 -24 -3
-52 -14 -8 -3 -19 -4 -23 -3 -5 1 -6 -3 -2 -8 3 -6 11 -8 19 -5 7 3 13 -2 13
-10 0 -11 -5 -12 -17 -6 -8 4 -32 6 -53 3 l-37 -5 0 299 0 298 -88 56 c-48 31
-123 76 -167 99 -44 24 -106 58 -138 77 -32 18 -62 33 -68 33 -5 0 -9 4 -9 9
0 5 -14 11 -31 13 -22 3 -43 -3 -75 -24 -25 -15 -48 -28 -51 -28 -4 0 -37 -18
-74 -40 -37 -22 -72 -40 -77 -40 -5 0 -14 46 -21 102 -38 314 -146 508 -330
596 -69 33 -82 36 -185 39 -84 2 -129 -2 -186 -16z m1595 -2211 c4 -6 -6 -10
-22 -9 -25 0 -26 1 -8 9 11 5 21 9 22 9 1 1 5 -3 8 -9z m-2938 -226 c-3 -3
-12 -4 -19 -1 -8 3 -5 6 6 6 11 1 17 -2 13 -5z"/>
<path d="M12095 7630 c3 -5 -3 -10 -14 -10 -12 0 -21 -4 -21 -8 0 -4 -8 -8
-17 -9 -37 -3 -56 -10 -68 -26 -7 -9 -15 -14 -19 -10 -3 4 -19 -2 -34 -13 -15
-11 -39 -26 -54 -33 -20 -10 -25 -18 -18 -26 8 -9 4 -12 -15 -10 -14 2 -25 -1
-25 -6 0 -4 -7 -5 -17 -2 -11 4 -14 3 -9 -5 4 -7 2 -12 -4 -12 -6 0 -8 -4 -5
-10 3 -6 -4 -10 -17 -10 -17 0 -19 -3 -9 -9 11 -7 11 -9 0 -14 -11 -4 -11 -6
-1 -6 7 -1 11 -5 7 -10 -10 -16 39 -2 51 14 7 9 20 17 31 19 23 5 235 126 245
140 4 6 8 7 8 1 0 -5 7 1 16 13 8 12 20 20 25 17 5 -4 9 -1 9 4 0 6 -7 11 -16
11 -8 0 -12 5 -9 10 3 6 -1 10 -10 10 -9 0 -13 -4 -10 -10z m0 -30 c3 -5 -1
-10 -10 -10 -9 0 -13 5 -10 10 3 6 8 10 10 10 2 0 7 -4 10 -10z"/>
<path d="M12490 7495 c-5 -6 -23 -10 -40 -9 -18 1 -27 -2 -24 -8 4 -6 -3 -8
-17 -4 -13 3 -18 3 -11 0 6 -3 12 -13 12 -22 1 -16 2 -16 14 0 7 10 16 15 19
12 3 -3 16 0 29 7 12 7 29 14 37 15 23 4 32 20 10 20 -11 0 -24 -5 -29 -11z"/>
<path d="M12362 7444 c-18 -8 -31 -18 -28 -23 3 -5 -8 -11 -25 -15 -19 -3 -28
-10 -23 -17 4 -8 -1 -9 -17 -5 -13 3 -18 3 -11 0 6 -3 10 -10 6 -15 -9 -15 8
-10 81 26 59 28 64 33 35 29 -28 -4 -31 -3 -14 5 12 5 25 14 29 20 7 13 9 13
-33 -5z"/>
<path d="M12210 7340 c0 -5 -13 -10 -29 -10 -39 0 -61 -9 -61 -26 0 -8 -10
-14 -25 -14 -14 0 -25 -5 -25 -11 0 -5 -6 -7 -12 -3 -8 5 -7 0 2 -11 14 -17
14 -18 -9 -6 -13 7 -21 8 -17 3 3 -6 -6 -13 -21 -16 -16 -4 -50 -20 -78 -37
-27 -17 -41 -28 -30 -25 20 6 20 6 0 -9 -11 -9 -26 -13 -34 -10 -12 5 -12 3 0
-11 13 -16 12 -16 -10 -5 -15 8 -21 9 -17 2 4 -6 0 -11 -11 -11 -10 0 -29 -9
-43 -20 -14 -11 -30 -20 -37 -20 -6 0 -18 -9 -26 -20 -8 -11 -17 -17 -20 -13
-4 3 -7 1 -7 -6 0 -7 -6 -11 -12 -8 -21 7 -50 -13 -44 -30 5 -13 4 -14 -9 -3
-11 9 -15 9 -15 1 0 -7 -4 -10 -8 -7 -5 3 -25 -9 -45 -25 -20 -17 -37 -28 -37
-24 0 4 -7 -1 -16 -10 -9 -9 -29 -19 -45 -22 -30 -6 -46 -20 -35 -30 13 -14
53 -8 75 11 15 13 21 15 17 6 -6 -11 -4 -11 6 1 7 9 23 19 34 23 12 3 29 15
39 26 10 11 26 20 37 20 10 0 27 9 38 20 11 11 26 20 34 20 8 0 18 5 21 10 4
6 24 18 46 27 21 8 39 19 39 24 0 5 5 9 10 9 25 0 171 93 166 106 -3 7 2 13
12 13 38 1 52 5 52 13 0 4 8 8 17 8 9 0 13 3 10 7 -10 9 31 35 43 28 6 -3 10
-2 10 3 0 6 11 13 25 16 32 8 85 56 61 56 -9 0 -16 -4 -16 -10z m-600 -344 c0
-3 -4 -8 -10 -11 -5 -3 -10 -1 -10 4 0 6 5 11 10 11 6 0 10 -2 10 -4z"/>
<path d="M12062 6933 c-6 -3 -10 -9 -7 -13 3 -5 -11 -14 -30 -21 -19 -7 -35
-17 -35 -23 0 -5 -3 -6 -7 -3 -7 8 -92 -38 -109 -60 -7 -7 -22 -16 -34 -18
-30 -6 -89 -47 -87 -60 1 -5 7 -14 12 -18 6 -5 -2 -6 -17 -3 -16 4 -28 2 -28
-4 0 -5 9 -10 20 -10 11 0 20 -5 20 -10 0 -6 23 2 50 16 28 14 50 30 50 36 0
5 5 6 12 2 6 -4 17 1 25 11 7 11 13 16 13 12 0 -3 33 14 73 38 39 25 89 52
110 61 20 9 37 19 38 23 0 3 3 17 5 31 3 19 2 22 -7 13 -7 -7 -20 -8 -33 -4
-11 5 -27 6 -34 4z"/>
<path d="M12449 6734 c-23 -13 -23 -13 11 -7 42 7 45 9 27 16 -7 3 -24 -1 -38
-9z"/>
<path d="M12233 6620 c-12 -5 -26 -17 -32 -27 -10 -17 -10 -17 -11 0 0 10 -5
15 -11 12 -6 -4 -8 -14 -5 -22 5 -12 1 -14 -14 -10 -12 3 -17 1 -14 -5 3 -5 0
-8 -8 -6 -15 3 -88 -42 -88 -54 0 -9 26 -10 57 -2 13 4 20 10 17 15 -3 5 2 6
10 3 9 -3 18 0 21 8 3 8 21 21 40 28 19 8 35 17 35 21 0 4 6 9 13 12 6 2 4 3
-5 2 -10 -2 -18 1 -18 6 0 8 18 13 47 12 7 -1 10 3 7 8 -6 11 -12 11 -41 -1z"/>
<path d="M11961 6481 c-7 -5 -11 -14 -7 -20 4 -7 1 -9 -8 -5 -13 5 -67 -24
-86 -46 -3 -3 -24 -14 -48 -24 -57 -26 -70 -42 -37 -48 14 -3 25 -1 25 4 0 5
5 6 10 3 6 -3 10 -2 10 3 0 9 37 25 53 23 4 -1 7 4 7 9 0 6 7 10 16 10 14 0
164 88 164 97 0 2 -14 3 -31 3 -17 0 -28 -4 -24 -10 3 -5 1 -10 -4 -10 -6 0
-11 5 -11 10 0 12 -10 13 -29 1z m-141 -111 c0 -5 -8 -10 -17 -10 -15 0 -16 2
-3 10 19 12 20 12 20 0z"/>
<path d="M11685 6307 c-25 -23 -98 -60 -88 -44 7 13 -27 -12 -38 -26 -3 -5 -9
-8 -13 -8 -24 3 -27 -1 -10 -14 28 -22 44 -18 99 19 28 19 71 45 98 57 26 12
47 24 47 28 0 16 -76 6 -95 -12z"/>
<path d="M12000 6224 c-25 -13 -40 -24 -35 -25 6 0 -1 -4 -15 -8 -14 -4 -25
-12 -25 -18 0 -6 -4 -15 -9 -20 -5 -5 -6 -3 -2 5 4 7 1 12 -9 12 -9 0 -14 -4
-11 -8 3 -5 -15 -17 -39 -27 -25 -10 -42 -22 -38 -28 4 -6 0 -8 -10 -4 -11 4
-17 1 -17 -7 0 -8 -11 -17 -25 -20 -14 -4 -25 -13 -25 -20 0 -8 -6 -16 -12
-19 -10 -3 -9 -9 4 -22 16 -18 55 -14 44 4 -3 5 2 7 12 5 9 -3 27 4 40 16 12
11 22 18 22 15 0 -4 12 2 28 12 15 10 44 28 65 38 20 11 37 23 37 27 0 5 5 8
12 8 6 0 40 17 74 37 58 34 62 38 47 52 -24 24 -62 22 -113 -5z m-223 -170
c-3 -3 -12 -4 -19 -1 -8 3 -5 6 6 6 11 1 17 -2 13 -5z"/>
<path d="M11490 6200 c0 -5 -8 -10 -17 -11 -12 -1 -10 -4 7 -9 25 -8 25 -8 -4
-9 -23 -1 -27 -4 -19 -12 9 -9 21 -6 48 10 20 12 42 18 48 14 7 -4 6 1 -2 10
-14 18 -61 24 -61 7z"/>
<path d="M8340 5950 c-6 -11 -8 -20 -6 -20 3 0 10 9 16 20 6 11 8 20 6 20 -3
0 -10 -9 -16 -20z"/>
<path d="M2310 4577 l0 -1156 23 -16 c65 -47 162 -105 173 -105 8 0 14 -4 14
-9 0 -5 10 -13 23 -17 12 -4 47 -23 77 -42 30 -20 69 -43 85 -52 96 -52 157
-87 267 -152 68 -40 137 -81 153 -90 136 -75 165 -93 165 -100 0 -4 5 -8 11
-8 9 0 90 -45 174 -97 11 -7 31 -18 45 -25 40 -21 171 -97 225 -130 28 -17 84
-50 125 -73 41 -23 123 -69 181 -103 59 -34 109 -62 113 -62 3 0 7 309 8 687
2 535 6 687 15 690 10 4 9 8 -2 20 -13 12 -15 79 -15 462 0 343 -3 451 -12
463 -13 16 -120 84 -243 155 -38 22 -142 82 -230 133 -88 50 -180 103 -205
117 -73 41 -431 248 -625 361 -99 57 -209 121 -245 142 -36 20 -109 63 -163
95 -54 31 -107 59 -118 62 -19 5 -19 -13 -19 -1150z"/>
<path d="M4886 4541 c-4 -5 -1 -13 6 -17 8 -5 6 -10 -8 -16 -13 -5 -9 -6 14
-4 33 4 57 16 33 16 -7 0 -9 5 -5 13 4 6 4 9 -1 5 -4 -4 -14 -3 -21 3 -8 6
-14 6 -18 0z m25 -18 c13 -16 12 -17 -3 -4 -17 13 -22 21 -14 21 2 0 10 -8 17
-17z"/>
<path d="M4860 4110 c-8 -5 -10 -10 -5 -10 6 0 3 -5 -5 -10 -12 -8 -10 -9 8
-7 12 2 28 9 35 16 9 10 8 11 -7 5 -13 -5 -17 -4 -12 4 9 14 6 15 -14 2z"/>
<path d="M4789 4070 c-1 -3 -1 -9 0 -14 1 -5 -6 -5 -16 -2 -14 6 -15 5 -6 -5
9 -9 16 -9 26 -1 8 7 18 8 22 4 5 -4 4 -1 0 7 -6 11 -4 13 9 8 9 -4 15 -3 11
2 -6 10 -44 11 -46 1z"/>
<path d="M4704 4023 c4 -22 -53 -63 -80 -59 -11 2 -13 1 -6 -1 7 -3 9 -10 5
-16 -3 -6 9 -1 29 11 19 12 39 18 43 14 5 -4 4 -1 0 7 -6 10 -4 13 7 9 11 -5
14 0 14 17 -1 13 -5 27 -8 30 -4 4 -5 -1 -4 -12z"/>
<path d="M4735 4031 c-3 -5 0 -13 6 -17 8 -5 9 -3 4 6 -6 9 -1 10 16 5 19 -5
21 -4 9 4 -19 13 -27 14 -35 2z"/>
<path d="M4583 3935 c0 -8 4 -15 9 -15 4 0 8 7 8 15 0 8 -4 15 -8 15 -5 0 -9
-7 -9 -15z"/>
<path d="M4555 3928 c5 -13 1 -16 -20 -14 -14 2 -24 1 -21 -1 7 -8 -45 -53
-60 -53 -15 0 -18 -12 -8 -23 4 -3 13 1 21 9 8 8 20 11 26 7 7 -3 9 -2 4 2
-10 11 22 45 37 39 20 -8 42 24 27 39 -10 9 -11 8 -6 -5z"/>
<path d="M4405 3831 c-3 -5 0 -13 6 -17 8 -5 9 -3 4 6 -6 10 -4 12 9 7 10 -4
15 -3 11 3 -8 13 -22 13 -30 1z"/>
</g>
</svg>
